<svg xmlns="http://www.w3.org/2000/svg" viewBox="0 0 64 80">
  <!-- Head (football shape) -->
  <ellipse cx="32" cy="24" rx="24" ry="22" fill="#F5D5C8" stroke="#000" stroke-width="1.5"/>
  <!-- Head outline bumps -->
  <ellipse cx="14" cy="8" rx="3" ry="2" fill="#F5D5C8" stroke="#000" stroke-width="1"/>
  <ellipse cx="20" cy="5" rx="3" ry="2" fill="#F5D5C8" stroke="#000" stroke-width="1"/>
  <ellipse cx="27" cy="3" rx="3" ry="2" fill="#F5D5C8" stroke="#000" stroke-width="1"/>
  <ellipse cx="34" cy="2" rx="3" ry="2" fill="#F5D5C8" stroke="#000" stroke-width="1"/>
  <ellipse cx="41" cy="4" rx="3" ry="2" fill="#F5D5C8" stroke="#000" stroke-width="1"/>
  <ellipse cx="47" cy="7" rx="3" ry="2" fill="#F5D5C8" stroke="#000" stroke-width="1"/>
  <ellipse cx="51" cy="12" rx="2" ry="3" fill="#F5D5C8" stroke="#000" stroke-width="1"/>
  <!-- Eyes -->
  <ellipse cx="22" cy="24" rx="8" ry="6" fill="white" stroke="#000" stroke-width="1.5"/>
  <ellipse cx="42" cy="24" rx="8" ry="6" fill="white" stroke="#000" stroke-width="1.5"/>
  <!-- Pupils -->
  <circle cx="24" cy="25" r="2" fill="black"/>
  <circle cx="44" cy="25" r="2" fill="black"/>
  <!-- Eyelids (scheming look) -->
  <path d="M14 22 Q22 20 30 24" fill="#F5D5C8" stroke="#000" stroke-width="1"/>
  <path d="M34 24 Q42 20 50 22" fill="#F5D5C8" stroke="#000" stroke-width="1"/>
  <!-- Nose -->
  <ellipse cx="32" cy="30" rx="1.5" ry="1" fill="#E8B8A8" stroke="#000" stroke-width="0.5"/>
  <!-- Smirk -->
  <path d="M28 36 Q34 40 38 36" fill="none" stroke="#000" stroke-width="1.5" stroke-linecap="round"/>
  <!-- Body - Yellow shirt -->
  <path d="M20 44 Q16 48 18 56 L24 56 L24 52 L40 52 L40 56 L46 56 Q48 48 44 44 Q38 42 32 42 Q26 42 20 44" fill="#FFD93D" stroke="#000" stroke-width="1.5"/>
  <!-- Red overalls -->
  <path d="M18 56 L18 72 L28 72 L28 56 Z" fill="#D32F2F" stroke="#000" stroke-width="1.5"/>
  <path d="M36 56 L36 72 L46 72 L46 56 Z" fill="#D32F2F" stroke="#000" stroke-width="1.5"/>
  <rect x="24" y="54" width="16" height="8" fill="#D32F2F" stroke="#000" stroke-width="1.5"/>
  <!-- Blue shoes -->
  <ellipse cx="23" cy="74" rx="7" ry="4" fill="#64B5F6" stroke="#000" stroke-width="1.5"/>
  <ellipse cx="41" cy="74" rx="7" ry="4" fill="#64B5F6" stroke="#000" stroke-width="1.5"/>
  <!-- Hands -->
  <circle cx="28" cy="50" r="4" fill="#F5D5C8" stroke="#000" stroke-width="1"/>
  <circle cx="36" cy="50" r="4" fill="#F5D5C8" stroke="#000" stroke-width="1"/>
</svg>